<svg xmlns="http://www.w3.org/2000/svg" width="280" height="40" fill="none" viewBox="0 0 280 40">
    <g clip-path="url(#prefix__clip0)">
        <g filter="url(#prefix__filter0_d)">
            <rect width="280" height="40" fill="#D70000" rx="4"/>
        </g>
        <path fill="#fff" d="M121.298 26.182c2.254 0 3.626-1.344 3.626-2.996 0-1.512-.882-2.268-2.1-2.786l-1.414-.602c-.84-.336-1.666-.672-1.666-1.568 0-.812.686-1.316 1.736-1.316.91 0 1.624.35 2.268.924l.854-1.036c-.784-.798-1.918-1.302-3.122-1.302-1.96 0-3.388 1.218-3.388 2.842 0 1.498 1.106 2.282 2.1 2.702l1.428.616c.952.42 1.652.714 1.652 1.652 0 .868-.7 1.456-1.946 1.456-.994 0-2.002-.476-2.744-1.218l-.952 1.12c.938.952 2.254 1.512 3.668 1.512zm5.438-.182h1.61v-7.7h-1.61V26zm.798-9.142c.588 0 1.008-.378 1.008-.966 0-.574-.42-.952-1.008-.952-.588 0-.994.378-.994.952 0 .588.406.966.994.966zm5.853 12.6c2.464 0 4.032-1.204 4.032-2.688 0-1.316-.952-1.876-2.772-1.876h-1.414c-.98 0-1.288-.294-1.288-.756 0-.378.168-.588.42-.812.336.154.728.238 1.078.238 1.61 0 2.884-.966 2.884-2.646 0-.588-.21-1.106-.504-1.414h1.47V18.3h-2.73c-.294-.112-.686-.196-1.12-.196-1.596 0-2.982 1.022-2.982 2.758 0 .924.49 1.652 1.022 2.058v.056c-.434.308-.868.826-.868 1.428 0 .63.308 1.036.7 1.274v.07c-.714.434-1.12 1.036-1.12 1.68 0 1.344 1.344 2.03 3.192 2.03zm.056-6.93c-.798 0-1.456-.63-1.456-1.666s.644-1.624 1.456-1.624c.812 0 1.456.602 1.456 1.624 0 1.036-.658 1.666-1.456 1.666zm.182 5.866c-1.274 0-2.058-.448-2.058-1.204 0-.392.196-.784.658-1.12.322.07.672.112 1.036.112h1.162c.938 0 1.442.196 1.442.84 0 .714-.896 1.372-2.24 1.372zM138.849 26h1.61v-5.46c.672-.686 1.162-1.05 1.876-1.05.91 0 1.302.532 1.302 1.862V26h1.61v-4.844c0-1.96-.728-3.052-2.366-3.052-1.05 0-1.834.574-2.548 1.26h-.042l-.126-1.064h-1.316V26zm11.881 0h1.61v-7.7h-1.61V26zm.798-9.142c.588 0 1.008-.378 1.008-.966 0-.574-.42-.952-1.008-.952-.588 0-.994.378-.994.952 0 .588.406.966.994.966zM154.749 26h1.61v-5.46c.672-.686 1.162-1.05 1.876-1.05.91 0 1.302.532 1.302 1.862V26h1.61v-4.844c0-1.96-.728-3.052-2.366-3.052-1.05 0-1.834.574-2.548 1.26h-.042l-.126-1.064h-1.316V26z"/>
    </g>
    <defs>
        <clipPath id="prefix__clip0">
            <path fill="#fff" d="M0 0H280V40H0z"/>
        </clipPath>
        <filter id="prefix__filter0_d" width="288" height="48" x="-4" y="0" color-interpolation-filters="sRGB" filterUnits="userSpaceOnUse">
            <feFlood flood-opacity="0" result="BackgroundImageFix"/>
            <feColorMatrix in="SourceAlpha" values="0 0 0 0 0 0 0 0 0 0 0 0 0 0 0 0 0 0 127 0"/>
            <feOffset dy="4"/>
            <feGaussianBlur stdDeviation="2"/>
            <feColorMatrix values="0 0 0 0 0 0 0 0 0 0 0 0 0 0 0 0 0 0 0.25 0"/>
            <feBlend in2="BackgroundImageFix" result="effect1_dropShadow"/>
            <feBlend in="SourceGraphic" in2="effect1_dropShadow" result="shape"/>
        </filter>
    </defs>
</svg>
